<svg data-v-423bf9ae="" xmlns="http://www.w3.org/2000/svg" viewBox="0 0 240.32550475328205 60" class="font"><!----><!----><!----><g data-v-423bf9ae="" id="da21b63f-0cf1-4a88-a776-df7b8394348a" fill="black" transform="matrix(5.424955053999871,0,0,5.424955053999871,-5.316455804707289,-9.113924137618866)"><path d="M2.52 7.98L6.23 7.98L6.23 6.58L2.52 6.58L2.52 4.20L6.37 4.20L6.37 2.80L0.98 2.80L0.98 12.60L2.52 12.60ZM11.97 6.16L10.43 8.19L8.89 6.16L7.21 6.16L9.59 9.28L7.07 12.60L8.75 12.60L10.43 10.39L12.11 12.60L13.79 12.60L11.27 9.28L13.65 6.16ZM14.70 2.80L14.70 12.60L16.24 12.60L16.24 8.82L17.71 8.82C18.67 8.82 19.47 8.54 20.10 7.99C20.73 7.43 21.04 6.71 21.04 5.81C21.04 4.91 20.73 4.19 20.10 3.63C19.47 3.08 18.67 2.80 17.71 2.80ZM16.24 4.20L17.71 4.20C18.27 4.20 18.71 4.34 19.03 4.61C19.34 4.89 19.50 5.29 19.50 5.81C19.50 6.33 19.34 6.73 19.03 7.01C18.71 7.28 18.27 7.42 17.71 7.42L16.24 7.42ZM22.30 1.68L22.30 12.60L23.77 12.60L23.77 1.68ZM26.24 8.01C26.88 7.54 27.54 7.31 28.22 7.31C29.13 7.31 29.58 7.56 29.58 8.05L29.58 8.90C29.12 8.65 28.56 8.53 27.92 8.53C27.09 8.53 26.41 8.72 25.86 9.11C25.31 9.51 25.03 10.06 25.03 10.78C25.03 11.43 25.26 11.92 25.72 12.25C26.18 12.58 26.73 12.74 27.38 12.74C27.88 12.74 28.32 12.65 28.71 12.46C29.09 12.27 29.39 12.01 29.58 11.68L29.58 12.60L31.05 12.60L31.05 7.98C31.05 7.32 30.80 6.82 30.28 6.50C29.77 6.18 29.08 6.02 28.22 6.02C27.31 6.02 26.46 6.30 25.69 6.87ZM26.45 10.64C26.45 10.36 26.60 10.12 26.91 9.90C27.22 9.70 27.62 9.59 28.11 9.59C28.64 9.59 29.13 9.67 29.58 9.84L29.58 10.08C29.58 10.65 29.44 11.05 29.14 11.27C28.85 11.49 28.40 11.61 27.80 11.61C26.90 11.61 26.45 11.28 26.45 10.64ZM32.94 3.92L32.94 6.16L31.89 6.16L31.89 7.49L32.94 7.49L32.94 12.60L34.41 12.60L34.41 7.49L35.46 7.49L35.46 6.16L34.41 6.16L34.41 3.92ZM36.09 3.64C36.09 3.89 36.19 4.11 36.37 4.28C36.56 4.46 36.78 4.55 37.04 4.55C37.31 4.55 37.53 4.46 37.72 4.28C37.90 4.11 38.00 3.89 38.00 3.64C38.00 3.39 37.90 3.17 37.72 3.00C37.53 2.82 37.31 2.73 37.04 2.73C36.78 2.73 36.56 2.82 36.37 3.00C36.19 3.17 36.09 3.39 36.09 3.64ZM36.30 6.16L36.30 12.60L37.79 12.60L37.79 6.16ZM43.46 6.16L41.92 8.19L40.38 6.16L38.70 6.16L41.08 9.28L38.56 12.60L40.24 12.60L41.92 10.39L43.60 12.60L45.28 12.60L42.76 9.28L45.14 6.16Z"></path></g><!----><!----></svg>